%TF.GenerationSoftware,KiCad,Pcbnew,(5.1.6-0-10_14)*%
%TF.CreationDate,2021-03-26T09:45:15+01:00*%
%TF.ProjectId,KBPY,4b425059-2e6b-4696-9361-645f70636258,rev?*%
%TF.SameCoordinates,Original*%
%TF.FileFunction,Legend,Bot*%
%TF.FilePolarity,Positive*%
%FSLAX46Y46*%
G04 Gerber Fmt 4.6, Leading zero omitted, Abs format (unit mm)*
G04 Created by KiCad (PCBNEW (5.1.6-0-10_14)) date 2021-03-26 09:45:15*
%MOMM*%
%LPD*%
G01*
G04 APERTURE LIST*
%ADD10C,0.500000*%
%ADD11C,0.010000*%
%ADD12C,0.150000*%
G04 APERTURE END LIST*
D10*
X129801428Y-111527142D02*
X129801428Y-108527142D01*
X128087142Y-111527142D02*
X129372857Y-109812857D01*
X128087142Y-108527142D02*
X129801428Y-110241428D01*
X125801428Y-109955714D02*
X125372857Y-110098571D01*
X125230000Y-110241428D01*
X125087142Y-110527142D01*
X125087142Y-110955714D01*
X125230000Y-111241428D01*
X125372857Y-111384285D01*
X125658571Y-111527142D01*
X126801428Y-111527142D01*
X126801428Y-108527142D01*
X125801428Y-108527142D01*
X125515714Y-108670000D01*
X125372857Y-108812857D01*
X125230000Y-109098571D01*
X125230000Y-109384285D01*
X125372857Y-109670000D01*
X125515714Y-109812857D01*
X125801428Y-109955714D01*
X126801428Y-109955714D01*
X123801428Y-111527142D02*
X123801428Y-108527142D01*
X122658571Y-108527142D01*
X122372857Y-108670000D01*
X122230000Y-108812857D01*
X122087142Y-109098571D01*
X122087142Y-109527142D01*
X122230000Y-109812857D01*
X122372857Y-109955714D01*
X122658571Y-110098571D01*
X123801428Y-110098571D01*
X120230000Y-110098571D02*
X120230000Y-111527142D01*
X121230000Y-108527142D02*
X120230000Y-110098571D01*
X119230000Y-108527142D01*
D11*
%TO.C,REF\u002A\u002A*%
G36*
X127190256Y-117109918D02*
G01*
X127134799Y-117137568D01*
X127085852Y-117188480D01*
X127072371Y-117207338D01*
X127057686Y-117232015D01*
X127048158Y-117258816D01*
X127042707Y-117294587D01*
X127040253Y-117346169D01*
X127039714Y-117414267D01*
X127042148Y-117507588D01*
X127050606Y-117577657D01*
X127066826Y-117629931D01*
X127092546Y-117669869D01*
X127129503Y-117702929D01*
X127132218Y-117704886D01*
X127168640Y-117724908D01*
X127212498Y-117734815D01*
X127268276Y-117737257D01*
X127358952Y-117737257D01*
X127358990Y-117825283D01*
X127359834Y-117874308D01*
X127364976Y-117903065D01*
X127378413Y-117920311D01*
X127404142Y-117934808D01*
X127410321Y-117937769D01*
X127439236Y-117951648D01*
X127461624Y-117960414D01*
X127478271Y-117961171D01*
X127489964Y-117951023D01*
X127497490Y-117927073D01*
X127501634Y-117886426D01*
X127503185Y-117826186D01*
X127502929Y-117743455D01*
X127501651Y-117635339D01*
X127501252Y-117603000D01*
X127499815Y-117491524D01*
X127498528Y-117418603D01*
X127359029Y-117418603D01*
X127358245Y-117480499D01*
X127354760Y-117520997D01*
X127346876Y-117547708D01*
X127332895Y-117568244D01*
X127323403Y-117578260D01*
X127284596Y-117607567D01*
X127250237Y-117609952D01*
X127214784Y-117585750D01*
X127213886Y-117584857D01*
X127199461Y-117566153D01*
X127190687Y-117540732D01*
X127186261Y-117501584D01*
X127184882Y-117441697D01*
X127184857Y-117428430D01*
X127188188Y-117345901D01*
X127199031Y-117288691D01*
X127218660Y-117253766D01*
X127248350Y-117238094D01*
X127265509Y-117236514D01*
X127306234Y-117243926D01*
X127334168Y-117268330D01*
X127350983Y-117312980D01*
X127358350Y-117381130D01*
X127359029Y-117418603D01*
X127498528Y-117418603D01*
X127498292Y-117405245D01*
X127496323Y-117340333D01*
X127493550Y-117292958D01*
X127489612Y-117259290D01*
X127484151Y-117235498D01*
X127476808Y-117217753D01*
X127467223Y-117202224D01*
X127463113Y-117196381D01*
X127408595Y-117141185D01*
X127339664Y-117109890D01*
X127259928Y-117101165D01*
X127190256Y-117109918D01*
G37*
X127190256Y-117109918D02*
X127134799Y-117137568D01*
X127085852Y-117188480D01*
X127072371Y-117207338D01*
X127057686Y-117232015D01*
X127048158Y-117258816D01*
X127042707Y-117294587D01*
X127040253Y-117346169D01*
X127039714Y-117414267D01*
X127042148Y-117507588D01*
X127050606Y-117577657D01*
X127066826Y-117629931D01*
X127092546Y-117669869D01*
X127129503Y-117702929D01*
X127132218Y-117704886D01*
X127168640Y-117724908D01*
X127212498Y-117734815D01*
X127268276Y-117737257D01*
X127358952Y-117737257D01*
X127358990Y-117825283D01*
X127359834Y-117874308D01*
X127364976Y-117903065D01*
X127378413Y-117920311D01*
X127404142Y-117934808D01*
X127410321Y-117937769D01*
X127439236Y-117951648D01*
X127461624Y-117960414D01*
X127478271Y-117961171D01*
X127489964Y-117951023D01*
X127497490Y-117927073D01*
X127501634Y-117886426D01*
X127503185Y-117826186D01*
X127502929Y-117743455D01*
X127501651Y-117635339D01*
X127501252Y-117603000D01*
X127499815Y-117491524D01*
X127498528Y-117418603D01*
X127359029Y-117418603D01*
X127358245Y-117480499D01*
X127354760Y-117520997D01*
X127346876Y-117547708D01*
X127332895Y-117568244D01*
X127323403Y-117578260D01*
X127284596Y-117607567D01*
X127250237Y-117609952D01*
X127214784Y-117585750D01*
X127213886Y-117584857D01*
X127199461Y-117566153D01*
X127190687Y-117540732D01*
X127186261Y-117501584D01*
X127184882Y-117441697D01*
X127184857Y-117428430D01*
X127188188Y-117345901D01*
X127199031Y-117288691D01*
X127218660Y-117253766D01*
X127248350Y-117238094D01*
X127265509Y-117236514D01*
X127306234Y-117243926D01*
X127334168Y-117268330D01*
X127350983Y-117312980D01*
X127358350Y-117381130D01*
X127359029Y-117418603D01*
X127498528Y-117418603D01*
X127498292Y-117405245D01*
X127496323Y-117340333D01*
X127493550Y-117292958D01*
X127489612Y-117259290D01*
X127484151Y-117235498D01*
X127476808Y-117217753D01*
X127467223Y-117202224D01*
X127463113Y-117196381D01*
X127408595Y-117141185D01*
X127339664Y-117109890D01*
X127259928Y-117101165D01*
X127190256Y-117109918D01*
G36*
X126073907Y-117117780D02*
G01*
X126027328Y-117144723D01*
X125994943Y-117171466D01*
X125971258Y-117199484D01*
X125954941Y-117233748D01*
X125944661Y-117279227D01*
X125939086Y-117340892D01*
X125936884Y-117423711D01*
X125936629Y-117483246D01*
X125936629Y-117702391D01*
X125998314Y-117730044D01*
X126060000Y-117757697D01*
X126067257Y-117517670D01*
X126070256Y-117428028D01*
X126073402Y-117362962D01*
X126077299Y-117318026D01*
X126082553Y-117288770D01*
X126089769Y-117270748D01*
X126099550Y-117259511D01*
X126102688Y-117257079D01*
X126150239Y-117238083D01*
X126198303Y-117245600D01*
X126226914Y-117265543D01*
X126238553Y-117279675D01*
X126246609Y-117298220D01*
X126251729Y-117326334D01*
X126254559Y-117369173D01*
X126255744Y-117431895D01*
X126255943Y-117497261D01*
X126255982Y-117579268D01*
X126257386Y-117637316D01*
X126262086Y-117676465D01*
X126272013Y-117701780D01*
X126289097Y-117718323D01*
X126315268Y-117731156D01*
X126350225Y-117744491D01*
X126388404Y-117759007D01*
X126383859Y-117501389D01*
X126382029Y-117408519D01*
X126379888Y-117339889D01*
X126376819Y-117290711D01*
X126372206Y-117256198D01*
X126365432Y-117231562D01*
X126355881Y-117212016D01*
X126344366Y-117194770D01*
X126288810Y-117139680D01*
X126221020Y-117107822D01*
X126147287Y-117100191D01*
X126073907Y-117117780D01*
G37*
X126073907Y-117117780D02*
X126027328Y-117144723D01*
X125994943Y-117171466D01*
X125971258Y-117199484D01*
X125954941Y-117233748D01*
X125944661Y-117279227D01*
X125939086Y-117340892D01*
X125936884Y-117423711D01*
X125936629Y-117483246D01*
X125936629Y-117702391D01*
X125998314Y-117730044D01*
X126060000Y-117757697D01*
X126067257Y-117517670D01*
X126070256Y-117428028D01*
X126073402Y-117362962D01*
X126077299Y-117318026D01*
X126082553Y-117288770D01*
X126089769Y-117270748D01*
X126099550Y-117259511D01*
X126102688Y-117257079D01*
X126150239Y-117238083D01*
X126198303Y-117245600D01*
X126226914Y-117265543D01*
X126238553Y-117279675D01*
X126246609Y-117298220D01*
X126251729Y-117326334D01*
X126254559Y-117369173D01*
X126255744Y-117431895D01*
X126255943Y-117497261D01*
X126255982Y-117579268D01*
X126257386Y-117637316D01*
X126262086Y-117676465D01*
X126272013Y-117701780D01*
X126289097Y-117718323D01*
X126315268Y-117731156D01*
X126350225Y-117744491D01*
X126388404Y-117759007D01*
X126383859Y-117501389D01*
X126382029Y-117408519D01*
X126379888Y-117339889D01*
X126376819Y-117290711D01*
X126372206Y-117256198D01*
X126365432Y-117231562D01*
X126355881Y-117212016D01*
X126344366Y-117194770D01*
X126288810Y-117139680D01*
X126221020Y-117107822D01*
X126147287Y-117100191D01*
X126073907Y-117117780D01*
G36*
X127748885Y-117111962D02*
G01*
X127680855Y-117147733D01*
X127630649Y-117205301D01*
X127612815Y-117242312D01*
X127598937Y-117297882D01*
X127591833Y-117368096D01*
X127591160Y-117444727D01*
X127596573Y-117519552D01*
X127607730Y-117584342D01*
X127624286Y-117630873D01*
X127629374Y-117638887D01*
X127689645Y-117698707D01*
X127761231Y-117734535D01*
X127838908Y-117745020D01*
X127917452Y-117728810D01*
X127939311Y-117719092D01*
X127981878Y-117689143D01*
X128019237Y-117649433D01*
X128022768Y-117644397D01*
X128037119Y-117620124D01*
X128046606Y-117594178D01*
X128052210Y-117560022D01*
X128054914Y-117511119D01*
X128055701Y-117440935D01*
X128055714Y-117425200D01*
X128055678Y-117420192D01*
X127910571Y-117420192D01*
X127909727Y-117486430D01*
X127906404Y-117530386D01*
X127899417Y-117558779D01*
X127887584Y-117578325D01*
X127881543Y-117584857D01*
X127846814Y-117609680D01*
X127813097Y-117608548D01*
X127779005Y-117587016D01*
X127758671Y-117564029D01*
X127746629Y-117530478D01*
X127739866Y-117477569D01*
X127739402Y-117471399D01*
X127738248Y-117375513D01*
X127750312Y-117304299D01*
X127775430Y-117258194D01*
X127813440Y-117237635D01*
X127827008Y-117236514D01*
X127862636Y-117242152D01*
X127887006Y-117261686D01*
X127901907Y-117299042D01*
X127909125Y-117358150D01*
X127910571Y-117420192D01*
X128055678Y-117420192D01*
X128055174Y-117350413D01*
X128052904Y-117298159D01*
X128047932Y-117261949D01*
X128039287Y-117235299D01*
X128025995Y-117211722D01*
X128023057Y-117207338D01*
X127973687Y-117148249D01*
X127919891Y-117113947D01*
X127854398Y-117100331D01*
X127832158Y-117099665D01*
X127748885Y-117111962D01*
G37*
X127748885Y-117111962D02*
X127680855Y-117147733D01*
X127630649Y-117205301D01*
X127612815Y-117242312D01*
X127598937Y-117297882D01*
X127591833Y-117368096D01*
X127591160Y-117444727D01*
X127596573Y-117519552D01*
X127607730Y-117584342D01*
X127624286Y-117630873D01*
X127629374Y-117638887D01*
X127689645Y-117698707D01*
X127761231Y-117734535D01*
X127838908Y-117745020D01*
X127917452Y-117728810D01*
X127939311Y-117719092D01*
X127981878Y-117689143D01*
X128019237Y-117649433D01*
X128022768Y-117644397D01*
X128037119Y-117620124D01*
X128046606Y-117594178D01*
X128052210Y-117560022D01*
X128054914Y-117511119D01*
X128055701Y-117440935D01*
X128055714Y-117425200D01*
X128055678Y-117420192D01*
X127910571Y-117420192D01*
X127909727Y-117486430D01*
X127906404Y-117530386D01*
X127899417Y-117558779D01*
X127887584Y-117578325D01*
X127881543Y-117584857D01*
X127846814Y-117609680D01*
X127813097Y-117608548D01*
X127779005Y-117587016D01*
X127758671Y-117564029D01*
X127746629Y-117530478D01*
X127739866Y-117477569D01*
X127739402Y-117471399D01*
X127738248Y-117375513D01*
X127750312Y-117304299D01*
X127775430Y-117258194D01*
X127813440Y-117237635D01*
X127827008Y-117236514D01*
X127862636Y-117242152D01*
X127887006Y-117261686D01*
X127901907Y-117299042D01*
X127909125Y-117358150D01*
X127910571Y-117420192D01*
X128055678Y-117420192D01*
X128055174Y-117350413D01*
X128052904Y-117298159D01*
X128047932Y-117261949D01*
X128039287Y-117235299D01*
X128025995Y-117211722D01*
X128023057Y-117207338D01*
X127973687Y-117148249D01*
X127919891Y-117113947D01*
X127854398Y-117100331D01*
X127832158Y-117099665D01*
X127748885Y-117111962D01*
G36*
X126621697Y-117121239D02*
G01*
X126564473Y-117159735D01*
X126520251Y-117215335D01*
X126493833Y-117286086D01*
X126488490Y-117338162D01*
X126489097Y-117359893D01*
X126494178Y-117376531D01*
X126508145Y-117391437D01*
X126535411Y-117407973D01*
X126580388Y-117429498D01*
X126647489Y-117459374D01*
X126647829Y-117459524D01*
X126709593Y-117487813D01*
X126760241Y-117512933D01*
X126794596Y-117532179D01*
X126807482Y-117542848D01*
X126807486Y-117542934D01*
X126796128Y-117566166D01*
X126769569Y-117591774D01*
X126739077Y-117610221D01*
X126723630Y-117613886D01*
X126681485Y-117601212D01*
X126645192Y-117569471D01*
X126627483Y-117534572D01*
X126610448Y-117508845D01*
X126577078Y-117479546D01*
X126537851Y-117454235D01*
X126503244Y-117440471D01*
X126496007Y-117439714D01*
X126487861Y-117452160D01*
X126487370Y-117483972D01*
X126493357Y-117526866D01*
X126504643Y-117572558D01*
X126520050Y-117612761D01*
X126520829Y-117614322D01*
X126567196Y-117679062D01*
X126627289Y-117723097D01*
X126695535Y-117744711D01*
X126766362Y-117742185D01*
X126834196Y-117713804D01*
X126837212Y-117711808D01*
X126890573Y-117663448D01*
X126925660Y-117600352D01*
X126945078Y-117517387D01*
X126947684Y-117494078D01*
X126952299Y-117384055D01*
X126946767Y-117332748D01*
X126807486Y-117332748D01*
X126805676Y-117364753D01*
X126795778Y-117374093D01*
X126771102Y-117367105D01*
X126732205Y-117350587D01*
X126688725Y-117329881D01*
X126687644Y-117329333D01*
X126650791Y-117309949D01*
X126636000Y-117297013D01*
X126639647Y-117283451D01*
X126655005Y-117265632D01*
X126694077Y-117239845D01*
X126736154Y-117237950D01*
X126773897Y-117256717D01*
X126799966Y-117292915D01*
X126807486Y-117332748D01*
X126946767Y-117332748D01*
X126942806Y-117296027D01*
X126918450Y-117226212D01*
X126884544Y-117177302D01*
X126823347Y-117127878D01*
X126755937Y-117103359D01*
X126687120Y-117101797D01*
X126621697Y-117121239D01*
G37*
X126621697Y-117121239D02*
X126564473Y-117159735D01*
X126520251Y-117215335D01*
X126493833Y-117286086D01*
X126488490Y-117338162D01*
X126489097Y-117359893D01*
X126494178Y-117376531D01*
X126508145Y-117391437D01*
X126535411Y-117407973D01*
X126580388Y-117429498D01*
X126647489Y-117459374D01*
X126647829Y-117459524D01*
X126709593Y-117487813D01*
X126760241Y-117512933D01*
X126794596Y-117532179D01*
X126807482Y-117542848D01*
X126807486Y-117542934D01*
X126796128Y-117566166D01*
X126769569Y-117591774D01*
X126739077Y-117610221D01*
X126723630Y-117613886D01*
X126681485Y-117601212D01*
X126645192Y-117569471D01*
X126627483Y-117534572D01*
X126610448Y-117508845D01*
X126577078Y-117479546D01*
X126537851Y-117454235D01*
X126503244Y-117440471D01*
X126496007Y-117439714D01*
X126487861Y-117452160D01*
X126487370Y-117483972D01*
X126493357Y-117526866D01*
X126504643Y-117572558D01*
X126520050Y-117612761D01*
X126520829Y-117614322D01*
X126567196Y-117679062D01*
X126627289Y-117723097D01*
X126695535Y-117744711D01*
X126766362Y-117742185D01*
X126834196Y-117713804D01*
X126837212Y-117711808D01*
X126890573Y-117663448D01*
X126925660Y-117600352D01*
X126945078Y-117517387D01*
X126947684Y-117494078D01*
X126952299Y-117384055D01*
X126946767Y-117332748D01*
X126807486Y-117332748D01*
X126805676Y-117364753D01*
X126795778Y-117374093D01*
X126771102Y-117367105D01*
X126732205Y-117350587D01*
X126688725Y-117329881D01*
X126687644Y-117329333D01*
X126650791Y-117309949D01*
X126636000Y-117297013D01*
X126639647Y-117283451D01*
X126655005Y-117265632D01*
X126694077Y-117239845D01*
X126736154Y-117237950D01*
X126773897Y-117256717D01*
X126799966Y-117292915D01*
X126807486Y-117332748D01*
X126946767Y-117332748D01*
X126942806Y-117296027D01*
X126918450Y-117226212D01*
X126884544Y-117177302D01*
X126823347Y-117127878D01*
X126755937Y-117103359D01*
X126687120Y-117101797D01*
X126621697Y-117121239D01*
G36*
X125414114Y-117041289D02*
G01*
X125409861Y-117100613D01*
X125404975Y-117135572D01*
X125398205Y-117150820D01*
X125388298Y-117151015D01*
X125385086Y-117149195D01*
X125342356Y-117136015D01*
X125286773Y-117136785D01*
X125230263Y-117150333D01*
X125194918Y-117167861D01*
X125158679Y-117195861D01*
X125132187Y-117227549D01*
X125114001Y-117267813D01*
X125102678Y-117321543D01*
X125096778Y-117393626D01*
X125094857Y-117488951D01*
X125094823Y-117507237D01*
X125094800Y-117712646D01*
X125140509Y-117728580D01*
X125172973Y-117739420D01*
X125190785Y-117744468D01*
X125191309Y-117744514D01*
X125193063Y-117730828D01*
X125194556Y-117693076D01*
X125195674Y-117636224D01*
X125196303Y-117565234D01*
X125196400Y-117522073D01*
X125196602Y-117436973D01*
X125197642Y-117375981D01*
X125200169Y-117334177D01*
X125204836Y-117306642D01*
X125212293Y-117288456D01*
X125223189Y-117274698D01*
X125229993Y-117268073D01*
X125276728Y-117241375D01*
X125327728Y-117239375D01*
X125373999Y-117261955D01*
X125382556Y-117270107D01*
X125395107Y-117285436D01*
X125403812Y-117303618D01*
X125409369Y-117329909D01*
X125412474Y-117369562D01*
X125413824Y-117427832D01*
X125414114Y-117508173D01*
X125414114Y-117712646D01*
X125459823Y-117728580D01*
X125492287Y-117739420D01*
X125510099Y-117744468D01*
X125510623Y-117744514D01*
X125511963Y-117730623D01*
X125513172Y-117691439D01*
X125514199Y-117630700D01*
X125514998Y-117552141D01*
X125515519Y-117459498D01*
X125515714Y-117356509D01*
X125515714Y-116959342D01*
X125468543Y-116939444D01*
X125421371Y-116919547D01*
X125414114Y-117041289D01*
G37*
X125414114Y-117041289D02*
X125409861Y-117100613D01*
X125404975Y-117135572D01*
X125398205Y-117150820D01*
X125388298Y-117151015D01*
X125385086Y-117149195D01*
X125342356Y-117136015D01*
X125286773Y-117136785D01*
X125230263Y-117150333D01*
X125194918Y-117167861D01*
X125158679Y-117195861D01*
X125132187Y-117227549D01*
X125114001Y-117267813D01*
X125102678Y-117321543D01*
X125096778Y-117393626D01*
X125094857Y-117488951D01*
X125094823Y-117507237D01*
X125094800Y-117712646D01*
X125140509Y-117728580D01*
X125172973Y-117739420D01*
X125190785Y-117744468D01*
X125191309Y-117744514D01*
X125193063Y-117730828D01*
X125194556Y-117693076D01*
X125195674Y-117636224D01*
X125196303Y-117565234D01*
X125196400Y-117522073D01*
X125196602Y-117436973D01*
X125197642Y-117375981D01*
X125200169Y-117334177D01*
X125204836Y-117306642D01*
X125212293Y-117288456D01*
X125223189Y-117274698D01*
X125229993Y-117268073D01*
X125276728Y-117241375D01*
X125327728Y-117239375D01*
X125373999Y-117261955D01*
X125382556Y-117270107D01*
X125395107Y-117285436D01*
X125403812Y-117303618D01*
X125409369Y-117329909D01*
X125412474Y-117369562D01*
X125413824Y-117427832D01*
X125414114Y-117508173D01*
X125414114Y-117712646D01*
X125459823Y-117728580D01*
X125492287Y-117739420D01*
X125510099Y-117744468D01*
X125510623Y-117744514D01*
X125511963Y-117730623D01*
X125513172Y-117691439D01*
X125514199Y-117630700D01*
X125514998Y-117552141D01*
X125515519Y-117459498D01*
X125515714Y-117356509D01*
X125515714Y-116959342D01*
X125468543Y-116939444D01*
X125421371Y-116919547D01*
X125414114Y-117041289D01*
G36*
X124750256Y-117140968D02*
G01*
X124693384Y-117162087D01*
X124692733Y-117162493D01*
X124657560Y-117188380D01*
X124631593Y-117218633D01*
X124613330Y-117258058D01*
X124601268Y-117311462D01*
X124593904Y-117383651D01*
X124589736Y-117479432D01*
X124589371Y-117493078D01*
X124584124Y-117698842D01*
X124628284Y-117721678D01*
X124660237Y-117737110D01*
X124679530Y-117744423D01*
X124680422Y-117744514D01*
X124683761Y-117731022D01*
X124686413Y-117694626D01*
X124688044Y-117641452D01*
X124688400Y-117598393D01*
X124688408Y-117528641D01*
X124691597Y-117484837D01*
X124702712Y-117463944D01*
X124726499Y-117462925D01*
X124767704Y-117478741D01*
X124829914Y-117507815D01*
X124875659Y-117531963D01*
X124899187Y-117552913D01*
X124906104Y-117575747D01*
X124906114Y-117576877D01*
X124894701Y-117616212D01*
X124860908Y-117637462D01*
X124809191Y-117640539D01*
X124771939Y-117640006D01*
X124752297Y-117650735D01*
X124740048Y-117676505D01*
X124732998Y-117709337D01*
X124743158Y-117727966D01*
X124746983Y-117730632D01*
X124782999Y-117741340D01*
X124833434Y-117742856D01*
X124885374Y-117735759D01*
X124922178Y-117722788D01*
X124973062Y-117679585D01*
X125001986Y-117619446D01*
X125007714Y-117572462D01*
X125003343Y-117530082D01*
X124987525Y-117495488D01*
X124956203Y-117464763D01*
X124905322Y-117433990D01*
X124830824Y-117399252D01*
X124826286Y-117397288D01*
X124759179Y-117366287D01*
X124717768Y-117340862D01*
X124700019Y-117318014D01*
X124703893Y-117294745D01*
X124727357Y-117268056D01*
X124734373Y-117261914D01*
X124781370Y-117238100D01*
X124830067Y-117239103D01*
X124872478Y-117262451D01*
X124900616Y-117305675D01*
X124903231Y-117314160D01*
X124928692Y-117355308D01*
X124960999Y-117375128D01*
X125007714Y-117394770D01*
X125007714Y-117343950D01*
X124993504Y-117270082D01*
X124951325Y-117202327D01*
X124929376Y-117179661D01*
X124879483Y-117150569D01*
X124816033Y-117137400D01*
X124750256Y-117140968D01*
G37*
X124750256Y-117140968D02*
X124693384Y-117162087D01*
X124692733Y-117162493D01*
X124657560Y-117188380D01*
X124631593Y-117218633D01*
X124613330Y-117258058D01*
X124601268Y-117311462D01*
X124593904Y-117383651D01*
X124589736Y-117479432D01*
X124589371Y-117493078D01*
X124584124Y-117698842D01*
X124628284Y-117721678D01*
X124660237Y-117737110D01*
X124679530Y-117744423D01*
X124680422Y-117744514D01*
X124683761Y-117731022D01*
X124686413Y-117694626D01*
X124688044Y-117641452D01*
X124688400Y-117598393D01*
X124688408Y-117528641D01*
X124691597Y-117484837D01*
X124702712Y-117463944D01*
X124726499Y-117462925D01*
X124767704Y-117478741D01*
X124829914Y-117507815D01*
X124875659Y-117531963D01*
X124899187Y-117552913D01*
X124906104Y-117575747D01*
X124906114Y-117576877D01*
X124894701Y-117616212D01*
X124860908Y-117637462D01*
X124809191Y-117640539D01*
X124771939Y-117640006D01*
X124752297Y-117650735D01*
X124740048Y-117676505D01*
X124732998Y-117709337D01*
X124743158Y-117727966D01*
X124746983Y-117730632D01*
X124782999Y-117741340D01*
X124833434Y-117742856D01*
X124885374Y-117735759D01*
X124922178Y-117722788D01*
X124973062Y-117679585D01*
X125001986Y-117619446D01*
X125007714Y-117572462D01*
X125003343Y-117530082D01*
X124987525Y-117495488D01*
X124956203Y-117464763D01*
X124905322Y-117433990D01*
X124830824Y-117399252D01*
X124826286Y-117397288D01*
X124759179Y-117366287D01*
X124717768Y-117340862D01*
X124700019Y-117318014D01*
X124703893Y-117294745D01*
X124727357Y-117268056D01*
X124734373Y-117261914D01*
X124781370Y-117238100D01*
X124830067Y-117239103D01*
X124872478Y-117262451D01*
X124900616Y-117305675D01*
X124903231Y-117314160D01*
X124928692Y-117355308D01*
X124960999Y-117375128D01*
X125007714Y-117394770D01*
X125007714Y-117343950D01*
X124993504Y-117270082D01*
X124951325Y-117202327D01*
X124929376Y-117179661D01*
X124879483Y-117150569D01*
X124816033Y-117137400D01*
X124750256Y-117140968D01*
G36*
X124260074Y-117139755D02*
G01*
X124194142Y-117164084D01*
X124140727Y-117207117D01*
X124119836Y-117237409D01*
X124097061Y-117292994D01*
X124097534Y-117333186D01*
X124121438Y-117360217D01*
X124130283Y-117364813D01*
X124168470Y-117379144D01*
X124187972Y-117375472D01*
X124194578Y-117351407D01*
X124194914Y-117338114D01*
X124207008Y-117289210D01*
X124238529Y-117254999D01*
X124282341Y-117238476D01*
X124331305Y-117242634D01*
X124371106Y-117264227D01*
X124384550Y-117276544D01*
X124394079Y-117291487D01*
X124400515Y-117314075D01*
X124404683Y-117349328D01*
X124407403Y-117402266D01*
X124409498Y-117477907D01*
X124410040Y-117501857D01*
X124412019Y-117583790D01*
X124414269Y-117641455D01*
X124417643Y-117679608D01*
X124422994Y-117703004D01*
X124431176Y-117716398D01*
X124443041Y-117724545D01*
X124450638Y-117728144D01*
X124482898Y-117740452D01*
X124501889Y-117744514D01*
X124508164Y-117730948D01*
X124511994Y-117689934D01*
X124513400Y-117620999D01*
X124512402Y-117523669D01*
X124512092Y-117508657D01*
X124509899Y-117419859D01*
X124507307Y-117355019D01*
X124503618Y-117309067D01*
X124498136Y-117276935D01*
X124490165Y-117253553D01*
X124479007Y-117233852D01*
X124473170Y-117225410D01*
X124439704Y-117188057D01*
X124402273Y-117159003D01*
X124397691Y-117156467D01*
X124330574Y-117136443D01*
X124260074Y-117139755D01*
G37*
X124260074Y-117139755D02*
X124194142Y-117164084D01*
X124140727Y-117207117D01*
X124119836Y-117237409D01*
X124097061Y-117292994D01*
X124097534Y-117333186D01*
X124121438Y-117360217D01*
X124130283Y-117364813D01*
X124168470Y-117379144D01*
X124187972Y-117375472D01*
X124194578Y-117351407D01*
X124194914Y-117338114D01*
X124207008Y-117289210D01*
X124238529Y-117254999D01*
X124282341Y-117238476D01*
X124331305Y-117242634D01*
X124371106Y-117264227D01*
X124384550Y-117276544D01*
X124394079Y-117291487D01*
X124400515Y-117314075D01*
X124404683Y-117349328D01*
X124407403Y-117402266D01*
X124409498Y-117477907D01*
X124410040Y-117501857D01*
X124412019Y-117583790D01*
X124414269Y-117641455D01*
X124417643Y-117679608D01*
X124422994Y-117703004D01*
X124431176Y-117716398D01*
X124443041Y-117724545D01*
X124450638Y-117728144D01*
X124482898Y-117740452D01*
X124501889Y-117744514D01*
X124508164Y-117730948D01*
X124511994Y-117689934D01*
X124513400Y-117620999D01*
X124512402Y-117523669D01*
X124512092Y-117508657D01*
X124509899Y-117419859D01*
X124507307Y-117355019D01*
X124503618Y-117309067D01*
X124498136Y-117276935D01*
X124490165Y-117253553D01*
X124479007Y-117233852D01*
X124473170Y-117225410D01*
X124439704Y-117188057D01*
X124402273Y-117159003D01*
X124397691Y-117156467D01*
X124330574Y-117136443D01*
X124260074Y-117139755D01*
G36*
X123599883Y-117255358D02*
G01*
X123600067Y-117363837D01*
X123600781Y-117447287D01*
X123602325Y-117509704D01*
X123604999Y-117555085D01*
X123609106Y-117587429D01*
X123614945Y-117610733D01*
X123622818Y-117628995D01*
X123628779Y-117639418D01*
X123678145Y-117695945D01*
X123740736Y-117731377D01*
X123809987Y-117744090D01*
X123879332Y-117732463D01*
X123920625Y-117711568D01*
X123963975Y-117675422D01*
X123993519Y-117631276D01*
X124011345Y-117573462D01*
X124019537Y-117496313D01*
X124020698Y-117439714D01*
X124020542Y-117435647D01*
X123919143Y-117435647D01*
X123918524Y-117500550D01*
X123915686Y-117543514D01*
X123909160Y-117571622D01*
X123897477Y-117591953D01*
X123883517Y-117607288D01*
X123836635Y-117636890D01*
X123786299Y-117639419D01*
X123738724Y-117614705D01*
X123735021Y-117611356D01*
X123719217Y-117593935D01*
X123709307Y-117573209D01*
X123703942Y-117542362D01*
X123701772Y-117494577D01*
X123701429Y-117441748D01*
X123702173Y-117375381D01*
X123705252Y-117331106D01*
X123711939Y-117302009D01*
X123723504Y-117281173D01*
X123732987Y-117270107D01*
X123777040Y-117242198D01*
X123827776Y-117238843D01*
X123876204Y-117260159D01*
X123885550Y-117268073D01*
X123901460Y-117285647D01*
X123911390Y-117306587D01*
X123916722Y-117337782D01*
X123918837Y-117386122D01*
X123919143Y-117435647D01*
X124020542Y-117435647D01*
X124017190Y-117348568D01*
X124005274Y-117280086D01*
X123982865Y-117228600D01*
X123947876Y-117188443D01*
X123920625Y-117167861D01*
X123871093Y-117145625D01*
X123813684Y-117135304D01*
X123760318Y-117138067D01*
X123730457Y-117149212D01*
X123718739Y-117152383D01*
X123710963Y-117140557D01*
X123705535Y-117108866D01*
X123701429Y-117060593D01*
X123696933Y-117006829D01*
X123690687Y-116974482D01*
X123679324Y-116955985D01*
X123659472Y-116943770D01*
X123647000Y-116938362D01*
X123599829Y-116918601D01*
X123599883Y-117255358D01*
G37*
X123599883Y-117255358D02*
X123600067Y-117363837D01*
X123600781Y-117447287D01*
X123602325Y-117509704D01*
X123604999Y-117555085D01*
X123609106Y-117587429D01*
X123614945Y-117610733D01*
X123622818Y-117628995D01*
X123628779Y-117639418D01*
X123678145Y-117695945D01*
X123740736Y-117731377D01*
X123809987Y-117744090D01*
X123879332Y-117732463D01*
X123920625Y-117711568D01*
X123963975Y-117675422D01*
X123993519Y-117631276D01*
X124011345Y-117573462D01*
X124019537Y-117496313D01*
X124020698Y-117439714D01*
X124020542Y-117435647D01*
X123919143Y-117435647D01*
X123918524Y-117500550D01*
X123915686Y-117543514D01*
X123909160Y-117571622D01*
X123897477Y-117591953D01*
X123883517Y-117607288D01*
X123836635Y-117636890D01*
X123786299Y-117639419D01*
X123738724Y-117614705D01*
X123735021Y-117611356D01*
X123719217Y-117593935D01*
X123709307Y-117573209D01*
X123703942Y-117542362D01*
X123701772Y-117494577D01*
X123701429Y-117441748D01*
X123702173Y-117375381D01*
X123705252Y-117331106D01*
X123711939Y-117302009D01*
X123723504Y-117281173D01*
X123732987Y-117270107D01*
X123777040Y-117242198D01*
X123827776Y-117238843D01*
X123876204Y-117260159D01*
X123885550Y-117268073D01*
X123901460Y-117285647D01*
X123911390Y-117306587D01*
X123916722Y-117337782D01*
X123918837Y-117386122D01*
X123919143Y-117435647D01*
X124020542Y-117435647D01*
X124017190Y-117348568D01*
X124005274Y-117280086D01*
X123982865Y-117228600D01*
X123947876Y-117188443D01*
X123920625Y-117167861D01*
X123871093Y-117145625D01*
X123813684Y-117135304D01*
X123760318Y-117138067D01*
X123730457Y-117149212D01*
X123718739Y-117152383D01*
X123710963Y-117140557D01*
X123705535Y-117108866D01*
X123701429Y-117060593D01*
X123696933Y-117006829D01*
X123690687Y-116974482D01*
X123679324Y-116955985D01*
X123659472Y-116943770D01*
X123647000Y-116938362D01*
X123599829Y-116918601D01*
X123599883Y-117255358D01*
G36*
X123010167Y-117148663D02*
G01*
X123007952Y-117186850D01*
X123006216Y-117244886D01*
X123005101Y-117318180D01*
X123004743Y-117395055D01*
X123004743Y-117655196D01*
X123050674Y-117701127D01*
X123082325Y-117729429D01*
X123110110Y-117740893D01*
X123148085Y-117740168D01*
X123163160Y-117738321D01*
X123210274Y-117732948D01*
X123249244Y-117729869D01*
X123258743Y-117729585D01*
X123290767Y-117731445D01*
X123336568Y-117736114D01*
X123354326Y-117738321D01*
X123397943Y-117741735D01*
X123427255Y-117734320D01*
X123456320Y-117711427D01*
X123466812Y-117701127D01*
X123512743Y-117655196D01*
X123512743Y-117168602D01*
X123475774Y-117151758D01*
X123443941Y-117139282D01*
X123425317Y-117134914D01*
X123420542Y-117148718D01*
X123416079Y-117187286D01*
X123412225Y-117246356D01*
X123409278Y-117321663D01*
X123407857Y-117385286D01*
X123403886Y-117635657D01*
X123369241Y-117640556D01*
X123337732Y-117637131D01*
X123322292Y-117626041D01*
X123317977Y-117605308D01*
X123314292Y-117561145D01*
X123311531Y-117499146D01*
X123309988Y-117424909D01*
X123309765Y-117386706D01*
X123309543Y-117166783D01*
X123263834Y-117150849D01*
X123231482Y-117140015D01*
X123213885Y-117134962D01*
X123213377Y-117134914D01*
X123211612Y-117148648D01*
X123209671Y-117186730D01*
X123207718Y-117244482D01*
X123205916Y-117317227D01*
X123204657Y-117385286D01*
X123200686Y-117635657D01*
X123113600Y-117635657D01*
X123109604Y-117407240D01*
X123105608Y-117178822D01*
X123063153Y-117156868D01*
X123031808Y-117141793D01*
X123013256Y-117134951D01*
X123012721Y-117134914D01*
X123010167Y-117148663D01*
G37*
X123010167Y-117148663D02*
X123007952Y-117186850D01*
X123006216Y-117244886D01*
X123005101Y-117318180D01*
X123004743Y-117395055D01*
X123004743Y-117655196D01*
X123050674Y-117701127D01*
X123082325Y-117729429D01*
X123110110Y-117740893D01*
X123148085Y-117740168D01*
X123163160Y-117738321D01*
X123210274Y-117732948D01*
X123249244Y-117729869D01*
X123258743Y-117729585D01*
X123290767Y-117731445D01*
X123336568Y-117736114D01*
X123354326Y-117738321D01*
X123397943Y-117741735D01*
X123427255Y-117734320D01*
X123456320Y-117711427D01*
X123466812Y-117701127D01*
X123512743Y-117655196D01*
X123512743Y-117168602D01*
X123475774Y-117151758D01*
X123443941Y-117139282D01*
X123425317Y-117134914D01*
X123420542Y-117148718D01*
X123416079Y-117187286D01*
X123412225Y-117246356D01*
X123409278Y-117321663D01*
X123407857Y-117385286D01*
X123403886Y-117635657D01*
X123369241Y-117640556D01*
X123337732Y-117637131D01*
X123322292Y-117626041D01*
X123317977Y-117605308D01*
X123314292Y-117561145D01*
X123311531Y-117499146D01*
X123309988Y-117424909D01*
X123309765Y-117386706D01*
X123309543Y-117166783D01*
X123263834Y-117150849D01*
X123231482Y-117140015D01*
X123213885Y-117134962D01*
X123213377Y-117134914D01*
X123211612Y-117148648D01*
X123209671Y-117186730D01*
X123207718Y-117244482D01*
X123205916Y-117317227D01*
X123204657Y-117385286D01*
X123200686Y-117635657D01*
X123113600Y-117635657D01*
X123109604Y-117407240D01*
X123105608Y-117178822D01*
X123063153Y-117156868D01*
X123031808Y-117141793D01*
X123013256Y-117134951D01*
X123012721Y-117134914D01*
X123010167Y-117148663D01*
G36*
X122645124Y-117146335D02*
G01*
X122603333Y-117165344D01*
X122570531Y-117188378D01*
X122546497Y-117214133D01*
X122529903Y-117247358D01*
X122519423Y-117292800D01*
X122513729Y-117355207D01*
X122511493Y-117439327D01*
X122511257Y-117494721D01*
X122511257Y-117710826D01*
X122548226Y-117727670D01*
X122577344Y-117739981D01*
X122591769Y-117744514D01*
X122594528Y-117731025D01*
X122596718Y-117694653D01*
X122598058Y-117641542D01*
X122598343Y-117599372D01*
X122599566Y-117538447D01*
X122602864Y-117490115D01*
X122607679Y-117460518D01*
X122611504Y-117454229D01*
X122637217Y-117460652D01*
X122677582Y-117477125D01*
X122724321Y-117499458D01*
X122769155Y-117523457D01*
X122803807Y-117544930D01*
X122819998Y-117559685D01*
X122820062Y-117559845D01*
X122818670Y-117587152D01*
X122806182Y-117613219D01*
X122784257Y-117634392D01*
X122752257Y-117641474D01*
X122724908Y-117640649D01*
X122686174Y-117640042D01*
X122665842Y-117649116D01*
X122653631Y-117673092D01*
X122652091Y-117677613D01*
X122646797Y-117711806D01*
X122660953Y-117732568D01*
X122697852Y-117742462D01*
X122737711Y-117744292D01*
X122809438Y-117730727D01*
X122846568Y-117711355D01*
X122892424Y-117665845D01*
X122916744Y-117609983D01*
X122918927Y-117550957D01*
X122898371Y-117495953D01*
X122867451Y-117461486D01*
X122836580Y-117442189D01*
X122788058Y-117417759D01*
X122731515Y-117392985D01*
X122722090Y-117389199D01*
X122659981Y-117361791D01*
X122624178Y-117337634D01*
X122612663Y-117313619D01*
X122623420Y-117286635D01*
X122641886Y-117265543D01*
X122685531Y-117239572D01*
X122733554Y-117237624D01*
X122777594Y-117257637D01*
X122809291Y-117297551D01*
X122813451Y-117307848D01*
X122837673Y-117345724D01*
X122873035Y-117373842D01*
X122917657Y-117396917D01*
X122917657Y-117331485D01*
X122915031Y-117291506D01*
X122903770Y-117259997D01*
X122878801Y-117226378D01*
X122854831Y-117200484D01*
X122817559Y-117163817D01*
X122788599Y-117144121D01*
X122757495Y-117136220D01*
X122722287Y-117134914D01*
X122645124Y-117146335D01*
G37*
X122645124Y-117146335D02*
X122603333Y-117165344D01*
X122570531Y-117188378D01*
X122546497Y-117214133D01*
X122529903Y-117247358D01*
X122519423Y-117292800D01*
X122513729Y-117355207D01*
X122511493Y-117439327D01*
X122511257Y-117494721D01*
X122511257Y-117710826D01*
X122548226Y-117727670D01*
X122577344Y-117739981D01*
X122591769Y-117744514D01*
X122594528Y-117731025D01*
X122596718Y-117694653D01*
X122598058Y-117641542D01*
X122598343Y-117599372D01*
X122599566Y-117538447D01*
X122602864Y-117490115D01*
X122607679Y-117460518D01*
X122611504Y-117454229D01*
X122637217Y-117460652D01*
X122677582Y-117477125D01*
X122724321Y-117499458D01*
X122769155Y-117523457D01*
X122803807Y-117544930D01*
X122819998Y-117559685D01*
X122820062Y-117559845D01*
X122818670Y-117587152D01*
X122806182Y-117613219D01*
X122784257Y-117634392D01*
X122752257Y-117641474D01*
X122724908Y-117640649D01*
X122686174Y-117640042D01*
X122665842Y-117649116D01*
X122653631Y-117673092D01*
X122652091Y-117677613D01*
X122646797Y-117711806D01*
X122660953Y-117732568D01*
X122697852Y-117742462D01*
X122737711Y-117744292D01*
X122809438Y-117730727D01*
X122846568Y-117711355D01*
X122892424Y-117665845D01*
X122916744Y-117609983D01*
X122918927Y-117550957D01*
X122898371Y-117495953D01*
X122867451Y-117461486D01*
X122836580Y-117442189D01*
X122788058Y-117417759D01*
X122731515Y-117392985D01*
X122722090Y-117389199D01*
X122659981Y-117361791D01*
X122624178Y-117337634D01*
X122612663Y-117313619D01*
X122623420Y-117286635D01*
X122641886Y-117265543D01*
X122685531Y-117239572D01*
X122733554Y-117237624D01*
X122777594Y-117257637D01*
X122809291Y-117297551D01*
X122813451Y-117307848D01*
X122837673Y-117345724D01*
X122873035Y-117373842D01*
X122917657Y-117396917D01*
X122917657Y-117331485D01*
X122915031Y-117291506D01*
X122903770Y-117259997D01*
X122878801Y-117226378D01*
X122854831Y-117200484D01*
X122817559Y-117163817D01*
X122788599Y-117144121D01*
X122757495Y-117136220D01*
X122722287Y-117134914D01*
X122645124Y-117146335D01*
G36*
X122137400Y-117148752D02*
G01*
X122120052Y-117156334D01*
X122078644Y-117189128D01*
X122043235Y-117236547D01*
X122021336Y-117287151D01*
X122017771Y-117312098D01*
X122029721Y-117346927D01*
X122055933Y-117365357D01*
X122084036Y-117376516D01*
X122096905Y-117378572D01*
X122103171Y-117363649D01*
X122115544Y-117331175D01*
X122120972Y-117316502D01*
X122151410Y-117265744D01*
X122195480Y-117240427D01*
X122251990Y-117241206D01*
X122256175Y-117242203D01*
X122286345Y-117256507D01*
X122308524Y-117284393D01*
X122323673Y-117329287D01*
X122332750Y-117394615D01*
X122336714Y-117483804D01*
X122337086Y-117531261D01*
X122337270Y-117606071D01*
X122338478Y-117657069D01*
X122341691Y-117689471D01*
X122347891Y-117708495D01*
X122358060Y-117719356D01*
X122373181Y-117727272D01*
X122374054Y-117727670D01*
X122403172Y-117739981D01*
X122417597Y-117744514D01*
X122419814Y-117730809D01*
X122421711Y-117692925D01*
X122423153Y-117635715D01*
X122424002Y-117564027D01*
X122424171Y-117511565D01*
X122423308Y-117410047D01*
X122419930Y-117333032D01*
X122412858Y-117276023D01*
X122400912Y-117234526D01*
X122382910Y-117204043D01*
X122357673Y-117180080D01*
X122332753Y-117163355D01*
X122272829Y-117141097D01*
X122203089Y-117136076D01*
X122137400Y-117148752D01*
G37*
X122137400Y-117148752D02*
X122120052Y-117156334D01*
X122078644Y-117189128D01*
X122043235Y-117236547D01*
X122021336Y-117287151D01*
X122017771Y-117312098D01*
X122029721Y-117346927D01*
X122055933Y-117365357D01*
X122084036Y-117376516D01*
X122096905Y-117378572D01*
X122103171Y-117363649D01*
X122115544Y-117331175D01*
X122120972Y-117316502D01*
X122151410Y-117265744D01*
X122195480Y-117240427D01*
X122251990Y-117241206D01*
X122256175Y-117242203D01*
X122286345Y-117256507D01*
X122308524Y-117284393D01*
X122323673Y-117329287D01*
X122332750Y-117394615D01*
X122336714Y-117483804D01*
X122337086Y-117531261D01*
X122337270Y-117606071D01*
X122338478Y-117657069D01*
X122341691Y-117689471D01*
X122347891Y-117708495D01*
X122358060Y-117719356D01*
X122373181Y-117727272D01*
X122374054Y-117727670D01*
X122403172Y-117739981D01*
X122417597Y-117744514D01*
X122419814Y-117730809D01*
X122421711Y-117692925D01*
X122423153Y-117635715D01*
X122424002Y-117564027D01*
X122424171Y-117511565D01*
X122423308Y-117410047D01*
X122419930Y-117333032D01*
X122412858Y-117276023D01*
X122400912Y-117234526D01*
X122382910Y-117204043D01*
X122357673Y-117180080D01*
X122332753Y-117163355D01*
X122272829Y-117141097D01*
X122203089Y-117136076D01*
X122137400Y-117148752D01*
G36*
X121636405Y-117156966D02*
G01*
X121578979Y-117194497D01*
X121551281Y-117228096D01*
X121529338Y-117289064D01*
X121527595Y-117337308D01*
X121531543Y-117401816D01*
X121680314Y-117466934D01*
X121752651Y-117500202D01*
X121799916Y-117526964D01*
X121824493Y-117550144D01*
X121828763Y-117572667D01*
X121815111Y-117597455D01*
X121800057Y-117613886D01*
X121756254Y-117640235D01*
X121708611Y-117642081D01*
X121664855Y-117621546D01*
X121632711Y-117580752D01*
X121626962Y-117566347D01*
X121599424Y-117521356D01*
X121567742Y-117502182D01*
X121524286Y-117485779D01*
X121524286Y-117547966D01*
X121528128Y-117590283D01*
X121543177Y-117625969D01*
X121574720Y-117666943D01*
X121579408Y-117672267D01*
X121614494Y-117708720D01*
X121644653Y-117728283D01*
X121682385Y-117737283D01*
X121713665Y-117740230D01*
X121769615Y-117740965D01*
X121809445Y-117731660D01*
X121834292Y-117717846D01*
X121873344Y-117687467D01*
X121900375Y-117654613D01*
X121917483Y-117613294D01*
X121926762Y-117557521D01*
X121930307Y-117481305D01*
X121930590Y-117442622D01*
X121929628Y-117396247D01*
X121841993Y-117396247D01*
X121840977Y-117421126D01*
X121838444Y-117425200D01*
X121821726Y-117419665D01*
X121785751Y-117405017D01*
X121737669Y-117384190D01*
X121727614Y-117379714D01*
X121666848Y-117348814D01*
X121633368Y-117321657D01*
X121626010Y-117296220D01*
X121643609Y-117270481D01*
X121658144Y-117259109D01*
X121710590Y-117236364D01*
X121759678Y-117240122D01*
X121800773Y-117267884D01*
X121829242Y-117317152D01*
X121838369Y-117356257D01*
X121841993Y-117396247D01*
X121929628Y-117396247D01*
X121928715Y-117352249D01*
X121921804Y-117285384D01*
X121908116Y-117236695D01*
X121885904Y-117200849D01*
X121853426Y-117172513D01*
X121839267Y-117163355D01*
X121774947Y-117139507D01*
X121704527Y-117138006D01*
X121636405Y-117156966D01*
G37*
X121636405Y-117156966D02*
X121578979Y-117194497D01*
X121551281Y-117228096D01*
X121529338Y-117289064D01*
X121527595Y-117337308D01*
X121531543Y-117401816D01*
X121680314Y-117466934D01*
X121752651Y-117500202D01*
X121799916Y-117526964D01*
X121824493Y-117550144D01*
X121828763Y-117572667D01*
X121815111Y-117597455D01*
X121800057Y-117613886D01*
X121756254Y-117640235D01*
X121708611Y-117642081D01*
X121664855Y-117621546D01*
X121632711Y-117580752D01*
X121626962Y-117566347D01*
X121599424Y-117521356D01*
X121567742Y-117502182D01*
X121524286Y-117485779D01*
X121524286Y-117547966D01*
X121528128Y-117590283D01*
X121543177Y-117625969D01*
X121574720Y-117666943D01*
X121579408Y-117672267D01*
X121614494Y-117708720D01*
X121644653Y-117728283D01*
X121682385Y-117737283D01*
X121713665Y-117740230D01*
X121769615Y-117740965D01*
X121809445Y-117731660D01*
X121834292Y-117717846D01*
X121873344Y-117687467D01*
X121900375Y-117654613D01*
X121917483Y-117613294D01*
X121926762Y-117557521D01*
X121930307Y-117481305D01*
X121930590Y-117442622D01*
X121929628Y-117396247D01*
X121841993Y-117396247D01*
X121840977Y-117421126D01*
X121838444Y-117425200D01*
X121821726Y-117419665D01*
X121785751Y-117405017D01*
X121737669Y-117384190D01*
X121727614Y-117379714D01*
X121666848Y-117348814D01*
X121633368Y-117321657D01*
X121626010Y-117296220D01*
X121643609Y-117270481D01*
X121658144Y-117259109D01*
X121710590Y-117236364D01*
X121759678Y-117240122D01*
X121800773Y-117267884D01*
X121829242Y-117317152D01*
X121838369Y-117356257D01*
X121841993Y-117396247D01*
X121929628Y-117396247D01*
X121928715Y-117352249D01*
X121921804Y-117285384D01*
X121908116Y-117236695D01*
X121885904Y-117200849D01*
X121853426Y-117172513D01*
X121839267Y-117163355D01*
X121774947Y-117139507D01*
X121704527Y-117138006D01*
X121636405Y-117156966D01*
G36*
X124686090Y-112432348D02*
G01*
X124607546Y-112432778D01*
X124550702Y-112433942D01*
X124511895Y-112436207D01*
X124487462Y-112439940D01*
X124473738Y-112445506D01*
X124467060Y-112453273D01*
X124463764Y-112463605D01*
X124463444Y-112464943D01*
X124458438Y-112489079D01*
X124449171Y-112536701D01*
X124436608Y-112602741D01*
X124421713Y-112682128D01*
X124405449Y-112769796D01*
X124404881Y-112772875D01*
X124388590Y-112858789D01*
X124373348Y-112934696D01*
X124360139Y-112996045D01*
X124349946Y-113038282D01*
X124343752Y-113056855D01*
X124343457Y-113057184D01*
X124325212Y-113066253D01*
X124287595Y-113081367D01*
X124238729Y-113099262D01*
X124238457Y-113099358D01*
X124176907Y-113122493D01*
X124104343Y-113151965D01*
X124035943Y-113181597D01*
X124032706Y-113183062D01*
X123921298Y-113233626D01*
X123674601Y-113065160D01*
X123598923Y-113013803D01*
X123530369Y-112967889D01*
X123472912Y-112930030D01*
X123430524Y-112902837D01*
X123407175Y-112888921D01*
X123404958Y-112887889D01*
X123387990Y-112892484D01*
X123356299Y-112914655D01*
X123308648Y-112955447D01*
X123243802Y-113015905D01*
X123177603Y-113080227D01*
X123113786Y-113143612D01*
X123056671Y-113201451D01*
X123009695Y-113250175D01*
X122976297Y-113286210D01*
X122959915Y-113305984D01*
X122959306Y-113307002D01*
X122957495Y-113320572D01*
X122964317Y-113342733D01*
X122981460Y-113376478D01*
X123010607Y-113424800D01*
X123053445Y-113490692D01*
X123110552Y-113575517D01*
X123161234Y-113650177D01*
X123206539Y-113717140D01*
X123243850Y-113772516D01*
X123270548Y-113812420D01*
X123284015Y-113832962D01*
X123284863Y-113834356D01*
X123283219Y-113854038D01*
X123270755Y-113892293D01*
X123249952Y-113941889D01*
X123242538Y-113957728D01*
X123210186Y-114028290D01*
X123175672Y-114108353D01*
X123147635Y-114177629D01*
X123127432Y-114229045D01*
X123111385Y-114268119D01*
X123102112Y-114288541D01*
X123100959Y-114290114D01*
X123083904Y-114292721D01*
X123043702Y-114299863D01*
X122985698Y-114310523D01*
X122915237Y-114323685D01*
X122837665Y-114338333D01*
X122758328Y-114353449D01*
X122682569Y-114368018D01*
X122615736Y-114381022D01*
X122563172Y-114391445D01*
X122530224Y-114398270D01*
X122522143Y-114400199D01*
X122513795Y-114404962D01*
X122507494Y-114415718D01*
X122502955Y-114436098D01*
X122499896Y-114469734D01*
X122498033Y-114520255D01*
X122497082Y-114591292D01*
X122496760Y-114686476D01*
X122496743Y-114725492D01*
X122496743Y-115042799D01*
X122572943Y-115057839D01*
X122615337Y-115065995D01*
X122678600Y-115077899D01*
X122755038Y-115092116D01*
X122836957Y-115107210D01*
X122859600Y-115111355D01*
X122935194Y-115126053D01*
X123001047Y-115140505D01*
X123051634Y-115153375D01*
X123081426Y-115163322D01*
X123086388Y-115166287D01*
X123098574Y-115187283D01*
X123116047Y-115227967D01*
X123135423Y-115280322D01*
X123139266Y-115291600D01*
X123164661Y-115361523D01*
X123196183Y-115440418D01*
X123227031Y-115511266D01*
X123227183Y-115511595D01*
X123278553Y-115622733D01*
X123109601Y-115871253D01*
X122940648Y-116119772D01*
X123157571Y-116337058D01*
X123223181Y-116401726D01*
X123283021Y-116458733D01*
X123333733Y-116505033D01*
X123371954Y-116537584D01*
X123394325Y-116553343D01*
X123397534Y-116554343D01*
X123416374Y-116546469D01*
X123454820Y-116524578D01*
X123508670Y-116491267D01*
X123573724Y-116449131D01*
X123644060Y-116401943D01*
X123715445Y-116353810D01*
X123779092Y-116311928D01*
X123830959Y-116278871D01*
X123867005Y-116257218D01*
X123883133Y-116249543D01*
X123902811Y-116256037D01*
X123940125Y-116273150D01*
X123987379Y-116297326D01*
X123992388Y-116300013D01*
X124056023Y-116331927D01*
X124099659Y-116347579D01*
X124126798Y-116347745D01*
X124140943Y-116333204D01*
X124141025Y-116333000D01*
X124148095Y-116315779D01*
X124164958Y-116274899D01*
X124190305Y-116213525D01*
X124222829Y-116134819D01*
X124261222Y-116041947D01*
X124304178Y-115938072D01*
X124345778Y-115837502D01*
X124391496Y-115726516D01*
X124433474Y-115623703D01*
X124470452Y-115532215D01*
X124501173Y-115455201D01*
X124524378Y-115395815D01*
X124538810Y-115357209D01*
X124543257Y-115342800D01*
X124532104Y-115326272D01*
X124502931Y-115299930D01*
X124464029Y-115270887D01*
X124353243Y-115179039D01*
X124266649Y-115073759D01*
X124205284Y-114957266D01*
X124170185Y-114831776D01*
X124162392Y-114699507D01*
X124168057Y-114638457D01*
X124198922Y-114511795D01*
X124252080Y-114399941D01*
X124324233Y-114304001D01*
X124412083Y-114225076D01*
X124512335Y-114164270D01*
X124621690Y-114122687D01*
X124736853Y-114101428D01*
X124854525Y-114101599D01*
X124971410Y-114124301D01*
X125084211Y-114170638D01*
X125189631Y-114241713D01*
X125233632Y-114281911D01*
X125318021Y-114385129D01*
X125376778Y-114497925D01*
X125410296Y-114617010D01*
X125418965Y-114739095D01*
X125403177Y-114860893D01*
X125363322Y-114979116D01*
X125299793Y-115090475D01*
X125212979Y-115191684D01*
X125115971Y-115270887D01*
X125075563Y-115301162D01*
X125047018Y-115327219D01*
X125036743Y-115342825D01*
X125042123Y-115359843D01*
X125057425Y-115400500D01*
X125081388Y-115461642D01*
X125112756Y-115540119D01*
X125150268Y-115632780D01*
X125192667Y-115736472D01*
X125234337Y-115837526D01*
X125280310Y-115948607D01*
X125322893Y-116051541D01*
X125360779Y-116143165D01*
X125392660Y-116220316D01*
X125417229Y-116279831D01*
X125433180Y-116318544D01*
X125439090Y-116333000D01*
X125453052Y-116347685D01*
X125480060Y-116347642D01*
X125523587Y-116332099D01*
X125587110Y-116300284D01*
X125587612Y-116300013D01*
X125635440Y-116275323D01*
X125674103Y-116257338D01*
X125695905Y-116249614D01*
X125696867Y-116249543D01*
X125713279Y-116257378D01*
X125749513Y-116279165D01*
X125801526Y-116312328D01*
X125865275Y-116354291D01*
X125935940Y-116401943D01*
X126007884Y-116450191D01*
X126072726Y-116492151D01*
X126126265Y-116525227D01*
X126164303Y-116546821D01*
X126182467Y-116554343D01*
X126199192Y-116544457D01*
X126232820Y-116516826D01*
X126279990Y-116474495D01*
X126337342Y-116420505D01*
X126401516Y-116357899D01*
X126422503Y-116336983D01*
X126639501Y-116119623D01*
X126474332Y-115877220D01*
X126424136Y-115802781D01*
X126380081Y-115735972D01*
X126344638Y-115680665D01*
X126320281Y-115640729D01*
X126309478Y-115620036D01*
X126309162Y-115618563D01*
X126314857Y-115599058D01*
X126330174Y-115559822D01*
X126352463Y-115507430D01*
X126368107Y-115472355D01*
X126397359Y-115405201D01*
X126424906Y-115337358D01*
X126446263Y-115280034D01*
X126452065Y-115262572D01*
X126468548Y-115215938D01*
X126484660Y-115179905D01*
X126493510Y-115166287D01*
X126513040Y-115157952D01*
X126555666Y-115146137D01*
X126615855Y-115132181D01*
X126688078Y-115117422D01*
X126720400Y-115111355D01*
X126802478Y-115096273D01*
X126881205Y-115081669D01*
X126948891Y-115068980D01*
X126997840Y-115059642D01*
X127007057Y-115057839D01*
X127083257Y-115042799D01*
X127083257Y-114725492D01*
X127083086Y-114621154D01*
X127082384Y-114542213D01*
X127080866Y-114485038D01*
X127078251Y-114445999D01*
X127074254Y-114421465D01*
X127068591Y-114407805D01*
X127060980Y-114401389D01*
X127057857Y-114400199D01*
X127039022Y-114395980D01*
X126997412Y-114387562D01*
X126938370Y-114375961D01*
X126867243Y-114362195D01*
X126789375Y-114347280D01*
X126710113Y-114332232D01*
X126634802Y-114318069D01*
X126568787Y-114305806D01*
X126517413Y-114296461D01*
X126486025Y-114291050D01*
X126479041Y-114290114D01*
X126472715Y-114277596D01*
X126458710Y-114244246D01*
X126439645Y-114196377D01*
X126432366Y-114177629D01*
X126403004Y-114105195D01*
X126368429Y-114025170D01*
X126337463Y-113957728D01*
X126314677Y-113906159D01*
X126299518Y-113863785D01*
X126294458Y-113837834D01*
X126295264Y-113834356D01*
X126305959Y-113817936D01*
X126330380Y-113781417D01*
X126365905Y-113728687D01*
X126409913Y-113663635D01*
X126459783Y-113590151D01*
X126469644Y-113575645D01*
X126527508Y-113489704D01*
X126570044Y-113424261D01*
X126598946Y-113376304D01*
X126615910Y-113342820D01*
X126622633Y-113320795D01*
X126620810Y-113307217D01*
X126620764Y-113307131D01*
X126606414Y-113289297D01*
X126574677Y-113254817D01*
X126528990Y-113207268D01*
X126472796Y-113150222D01*
X126409532Y-113087255D01*
X126402398Y-113080227D01*
X126322670Y-113003020D01*
X126261143Y-112946330D01*
X126216579Y-112909110D01*
X126187743Y-112890315D01*
X126175042Y-112887889D01*
X126156506Y-112898471D01*
X126118039Y-112922916D01*
X126063614Y-112958612D01*
X125997202Y-113002947D01*
X125922775Y-113053311D01*
X125905399Y-113065160D01*
X125658703Y-113233626D01*
X125547294Y-113183062D01*
X125479543Y-113153595D01*
X125406817Y-113123959D01*
X125344297Y-113100330D01*
X125341543Y-113099358D01*
X125292640Y-113081457D01*
X125254943Y-113066320D01*
X125236575Y-113057210D01*
X125236544Y-113057184D01*
X125230715Y-113040717D01*
X125220808Y-113000219D01*
X125207805Y-112940242D01*
X125192691Y-112865340D01*
X125176448Y-112780064D01*
X125175119Y-112772875D01*
X125158825Y-112685014D01*
X125143867Y-112605260D01*
X125131209Y-112538681D01*
X125121814Y-112490347D01*
X125116646Y-112465325D01*
X125116556Y-112464943D01*
X125113411Y-112454299D01*
X125107296Y-112446262D01*
X125094547Y-112440467D01*
X125071500Y-112436547D01*
X125034491Y-112434135D01*
X124979856Y-112432865D01*
X124903933Y-112432371D01*
X124803056Y-112432286D01*
X124790000Y-112432286D01*
X124686090Y-112432348D01*
G37*
X124686090Y-112432348D02*
X124607546Y-112432778D01*
X124550702Y-112433942D01*
X124511895Y-112436207D01*
X124487462Y-112439940D01*
X124473738Y-112445506D01*
X124467060Y-112453273D01*
X124463764Y-112463605D01*
X124463444Y-112464943D01*
X124458438Y-112489079D01*
X124449171Y-112536701D01*
X124436608Y-112602741D01*
X124421713Y-112682128D01*
X124405449Y-112769796D01*
X124404881Y-112772875D01*
X124388590Y-112858789D01*
X124373348Y-112934696D01*
X124360139Y-112996045D01*
X124349946Y-113038282D01*
X124343752Y-113056855D01*
X124343457Y-113057184D01*
X124325212Y-113066253D01*
X124287595Y-113081367D01*
X124238729Y-113099262D01*
X124238457Y-113099358D01*
X124176907Y-113122493D01*
X124104343Y-113151965D01*
X124035943Y-113181597D01*
X124032706Y-113183062D01*
X123921298Y-113233626D01*
X123674601Y-113065160D01*
X123598923Y-113013803D01*
X123530369Y-112967889D01*
X123472912Y-112930030D01*
X123430524Y-112902837D01*
X123407175Y-112888921D01*
X123404958Y-112887889D01*
X123387990Y-112892484D01*
X123356299Y-112914655D01*
X123308648Y-112955447D01*
X123243802Y-113015905D01*
X123177603Y-113080227D01*
X123113786Y-113143612D01*
X123056671Y-113201451D01*
X123009695Y-113250175D01*
X122976297Y-113286210D01*
X122959915Y-113305984D01*
X122959306Y-113307002D01*
X122957495Y-113320572D01*
X122964317Y-113342733D01*
X122981460Y-113376478D01*
X123010607Y-113424800D01*
X123053445Y-113490692D01*
X123110552Y-113575517D01*
X123161234Y-113650177D01*
X123206539Y-113717140D01*
X123243850Y-113772516D01*
X123270548Y-113812420D01*
X123284015Y-113832962D01*
X123284863Y-113834356D01*
X123283219Y-113854038D01*
X123270755Y-113892293D01*
X123249952Y-113941889D01*
X123242538Y-113957728D01*
X123210186Y-114028290D01*
X123175672Y-114108353D01*
X123147635Y-114177629D01*
X123127432Y-114229045D01*
X123111385Y-114268119D01*
X123102112Y-114288541D01*
X123100959Y-114290114D01*
X123083904Y-114292721D01*
X123043702Y-114299863D01*
X122985698Y-114310523D01*
X122915237Y-114323685D01*
X122837665Y-114338333D01*
X122758328Y-114353449D01*
X122682569Y-114368018D01*
X122615736Y-114381022D01*
X122563172Y-114391445D01*
X122530224Y-114398270D01*
X122522143Y-114400199D01*
X122513795Y-114404962D01*
X122507494Y-114415718D01*
X122502955Y-114436098D01*
X122499896Y-114469734D01*
X122498033Y-114520255D01*
X122497082Y-114591292D01*
X122496760Y-114686476D01*
X122496743Y-114725492D01*
X122496743Y-115042799D01*
X122572943Y-115057839D01*
X122615337Y-115065995D01*
X122678600Y-115077899D01*
X122755038Y-115092116D01*
X122836957Y-115107210D01*
X122859600Y-115111355D01*
X122935194Y-115126053D01*
X123001047Y-115140505D01*
X123051634Y-115153375D01*
X123081426Y-115163322D01*
X123086388Y-115166287D01*
X123098574Y-115187283D01*
X123116047Y-115227967D01*
X123135423Y-115280322D01*
X123139266Y-115291600D01*
X123164661Y-115361523D01*
X123196183Y-115440418D01*
X123227031Y-115511266D01*
X123227183Y-115511595D01*
X123278553Y-115622733D01*
X123109601Y-115871253D01*
X122940648Y-116119772D01*
X123157571Y-116337058D01*
X123223181Y-116401726D01*
X123283021Y-116458733D01*
X123333733Y-116505033D01*
X123371954Y-116537584D01*
X123394325Y-116553343D01*
X123397534Y-116554343D01*
X123416374Y-116546469D01*
X123454820Y-116524578D01*
X123508670Y-116491267D01*
X123573724Y-116449131D01*
X123644060Y-116401943D01*
X123715445Y-116353810D01*
X123779092Y-116311928D01*
X123830959Y-116278871D01*
X123867005Y-116257218D01*
X123883133Y-116249543D01*
X123902811Y-116256037D01*
X123940125Y-116273150D01*
X123987379Y-116297326D01*
X123992388Y-116300013D01*
X124056023Y-116331927D01*
X124099659Y-116347579D01*
X124126798Y-116347745D01*
X124140943Y-116333204D01*
X124141025Y-116333000D01*
X124148095Y-116315779D01*
X124164958Y-116274899D01*
X124190305Y-116213525D01*
X124222829Y-116134819D01*
X124261222Y-116041947D01*
X124304178Y-115938072D01*
X124345778Y-115837502D01*
X124391496Y-115726516D01*
X124433474Y-115623703D01*
X124470452Y-115532215D01*
X124501173Y-115455201D01*
X124524378Y-115395815D01*
X124538810Y-115357209D01*
X124543257Y-115342800D01*
X124532104Y-115326272D01*
X124502931Y-115299930D01*
X124464029Y-115270887D01*
X124353243Y-115179039D01*
X124266649Y-115073759D01*
X124205284Y-114957266D01*
X124170185Y-114831776D01*
X124162392Y-114699507D01*
X124168057Y-114638457D01*
X124198922Y-114511795D01*
X124252080Y-114399941D01*
X124324233Y-114304001D01*
X124412083Y-114225076D01*
X124512335Y-114164270D01*
X124621690Y-114122687D01*
X124736853Y-114101428D01*
X124854525Y-114101599D01*
X124971410Y-114124301D01*
X125084211Y-114170638D01*
X125189631Y-114241713D01*
X125233632Y-114281911D01*
X125318021Y-114385129D01*
X125376778Y-114497925D01*
X125410296Y-114617010D01*
X125418965Y-114739095D01*
X125403177Y-114860893D01*
X125363322Y-114979116D01*
X125299793Y-115090475D01*
X125212979Y-115191684D01*
X125115971Y-115270887D01*
X125075563Y-115301162D01*
X125047018Y-115327219D01*
X125036743Y-115342825D01*
X125042123Y-115359843D01*
X125057425Y-115400500D01*
X125081388Y-115461642D01*
X125112756Y-115540119D01*
X125150268Y-115632780D01*
X125192667Y-115736472D01*
X125234337Y-115837526D01*
X125280310Y-115948607D01*
X125322893Y-116051541D01*
X125360779Y-116143165D01*
X125392660Y-116220316D01*
X125417229Y-116279831D01*
X125433180Y-116318544D01*
X125439090Y-116333000D01*
X125453052Y-116347685D01*
X125480060Y-116347642D01*
X125523587Y-116332099D01*
X125587110Y-116300284D01*
X125587612Y-116300013D01*
X125635440Y-116275323D01*
X125674103Y-116257338D01*
X125695905Y-116249614D01*
X125696867Y-116249543D01*
X125713279Y-116257378D01*
X125749513Y-116279165D01*
X125801526Y-116312328D01*
X125865275Y-116354291D01*
X125935940Y-116401943D01*
X126007884Y-116450191D01*
X126072726Y-116492151D01*
X126126265Y-116525227D01*
X126164303Y-116546821D01*
X126182467Y-116554343D01*
X126199192Y-116544457D01*
X126232820Y-116516826D01*
X126279990Y-116474495D01*
X126337342Y-116420505D01*
X126401516Y-116357899D01*
X126422503Y-116336983D01*
X126639501Y-116119623D01*
X126474332Y-115877220D01*
X126424136Y-115802781D01*
X126380081Y-115735972D01*
X126344638Y-115680665D01*
X126320281Y-115640729D01*
X126309478Y-115620036D01*
X126309162Y-115618563D01*
X126314857Y-115599058D01*
X126330174Y-115559822D01*
X126352463Y-115507430D01*
X126368107Y-115472355D01*
X126397359Y-115405201D01*
X126424906Y-115337358D01*
X126446263Y-115280034D01*
X126452065Y-115262572D01*
X126468548Y-115215938D01*
X126484660Y-115179905D01*
X126493510Y-115166287D01*
X126513040Y-115157952D01*
X126555666Y-115146137D01*
X126615855Y-115132181D01*
X126688078Y-115117422D01*
X126720400Y-115111355D01*
X126802478Y-115096273D01*
X126881205Y-115081669D01*
X126948891Y-115068980D01*
X126997840Y-115059642D01*
X127007057Y-115057839D01*
X127083257Y-115042799D01*
X127083257Y-114725492D01*
X127083086Y-114621154D01*
X127082384Y-114542213D01*
X127080866Y-114485038D01*
X127078251Y-114445999D01*
X127074254Y-114421465D01*
X127068591Y-114407805D01*
X127060980Y-114401389D01*
X127057857Y-114400199D01*
X127039022Y-114395980D01*
X126997412Y-114387562D01*
X126938370Y-114375961D01*
X126867243Y-114362195D01*
X126789375Y-114347280D01*
X126710113Y-114332232D01*
X126634802Y-114318069D01*
X126568787Y-114305806D01*
X126517413Y-114296461D01*
X126486025Y-114291050D01*
X126479041Y-114290114D01*
X126472715Y-114277596D01*
X126458710Y-114244246D01*
X126439645Y-114196377D01*
X126432366Y-114177629D01*
X126403004Y-114105195D01*
X126368429Y-114025170D01*
X126337463Y-113957728D01*
X126314677Y-113906159D01*
X126299518Y-113863785D01*
X126294458Y-113837834D01*
X126295264Y-113834356D01*
X126305959Y-113817936D01*
X126330380Y-113781417D01*
X126365905Y-113728687D01*
X126409913Y-113663635D01*
X126459783Y-113590151D01*
X126469644Y-113575645D01*
X126527508Y-113489704D01*
X126570044Y-113424261D01*
X126598946Y-113376304D01*
X126615910Y-113342820D01*
X126622633Y-113320795D01*
X126620810Y-113307217D01*
X126620764Y-113307131D01*
X126606414Y-113289297D01*
X126574677Y-113254817D01*
X126528990Y-113207268D01*
X126472796Y-113150222D01*
X126409532Y-113087255D01*
X126402398Y-113080227D01*
X126322670Y-113003020D01*
X126261143Y-112946330D01*
X126216579Y-112909110D01*
X126187743Y-112890315D01*
X126175042Y-112887889D01*
X126156506Y-112898471D01*
X126118039Y-112922916D01*
X126063614Y-112958612D01*
X125997202Y-113002947D01*
X125922775Y-113053311D01*
X125905399Y-113065160D01*
X125658703Y-113233626D01*
X125547294Y-113183062D01*
X125479543Y-113153595D01*
X125406817Y-113123959D01*
X125344297Y-113100330D01*
X125341543Y-113099358D01*
X125292640Y-113081457D01*
X125254943Y-113066320D01*
X125236575Y-113057210D01*
X125236544Y-113057184D01*
X125230715Y-113040717D01*
X125220808Y-113000219D01*
X125207805Y-112940242D01*
X125192691Y-112865340D01*
X125176448Y-112780064D01*
X125175119Y-112772875D01*
X125158825Y-112685014D01*
X125143867Y-112605260D01*
X125131209Y-112538681D01*
X125121814Y-112490347D01*
X125116646Y-112465325D01*
X125116556Y-112464943D01*
X125113411Y-112454299D01*
X125107296Y-112446262D01*
X125094547Y-112440467D01*
X125071500Y-112436547D01*
X125034491Y-112434135D01*
X124979856Y-112432865D01*
X124903933Y-112432371D01*
X124803056Y-112432286D01*
X124790000Y-112432286D01*
X124686090Y-112432348D01*
D12*
%TO.C,SW1*%
X131230000Y-98255000D02*
X131230000Y-97874000D01*
X131230000Y-94826000D02*
X131230000Y-94445000D01*
X131230000Y-94445000D02*
X130849000Y-94445000D01*
X129071000Y-94445000D02*
X127420000Y-94445000D01*
X124880000Y-96350000D02*
X119800000Y-96350000D01*
X119800000Y-96350000D02*
X119800000Y-97366000D01*
X119800000Y-100414000D02*
X119800000Y-100795000D01*
X119800000Y-100795000D02*
X128690000Y-100795000D01*
X127344162Y-94426040D02*
G75*
G02*
X124880000Y-96350000I-2464162J616040D01*
G01*
X131230000Y-98255000D02*
G75*
G02*
X128690000Y-100795000I-2540000J0D01*
G01*
%TD*%
M02*
