%TF.GenerationSoftware,KiCad,Pcbnew,(5.1.6-0-10_14)*%
%TF.CreationDate,2021-03-26T09:45:15+01:00*%
%TF.ProjectId,KBPY,4b425059-2e6b-4696-9361-645f70636258,rev?*%
%TF.SameCoordinates,Original*%
%TF.FileFunction,Legend,Top*%
%TF.FilePolarity,Positive*%
%FSLAX46Y46*%
G04 Gerber Fmt 4.6, Leading zero omitted, Abs format (unit mm)*
G04 Created by KiCad (PCBNEW (5.1.6-0-10_14)) date 2021-03-26 09:45:15*
%MOMM*%
%LPD*%
G01*
G04 APERTURE LIST*
%ADD10C,0.150000*%
%ADD11C,0.066040*%
%ADD12C,0.127000*%
%ADD13C,0.100000*%
%ADD14C,0.101600*%
G04 APERTURE END LIST*
D10*
%TO.C,SW1*%
X117880000Y-87810000D02*
X117880000Y-86810000D01*
X117880000Y-100810000D02*
X118880000Y-100810000D01*
X118880000Y-86810000D02*
X117880000Y-86810000D01*
X117880000Y-100810000D02*
X117880000Y-99810000D01*
X131880000Y-99810000D02*
X131880000Y-100810000D01*
X131880000Y-86810000D02*
X130880000Y-86810000D01*
X130880000Y-100810000D02*
X131880000Y-100810000D01*
X131880000Y-86810000D02*
X131880000Y-87810000D01*
D11*
%TO.C,U1*%
X127400000Y-121500000D02*
X122320000Y-121500000D01*
X122320000Y-121500000D02*
X122320000Y-124040000D01*
X127400000Y-124040000D02*
X122320000Y-124040000D01*
X127400000Y-121500000D02*
X127400000Y-124040000D01*
X127400000Y-104355000D02*
X121685000Y-104355000D01*
X121685000Y-104355000D02*
X121685000Y-106895000D01*
X127400000Y-106895000D02*
X121685000Y-106895000D01*
X127400000Y-104355000D02*
X127400000Y-106895000D01*
X130067000Y-122135000D02*
X128289000Y-122135000D01*
X128289000Y-122135000D02*
X128289000Y-124802000D01*
X130067000Y-124802000D02*
X128289000Y-124802000D01*
X130067000Y-122135000D02*
X130067000Y-124802000D01*
X130067000Y-118068460D02*
X128289000Y-118068460D01*
X128289000Y-118068460D02*
X128289000Y-120738000D01*
X130067000Y-120738000D02*
X128289000Y-120738000D01*
X130067000Y-118068460D02*
X130067000Y-120738000D01*
X121431000Y-118068460D02*
X119653000Y-118068460D01*
X119653000Y-118068460D02*
X119653000Y-120738000D01*
X121431000Y-120738000D02*
X119653000Y-120738000D01*
X121431000Y-118068460D02*
X121431000Y-120738000D01*
X121431000Y-122135000D02*
X119653000Y-122135000D01*
X119653000Y-122135000D02*
X119653000Y-124802000D01*
X121431000Y-124802000D02*
X119653000Y-124802000D01*
X121431000Y-122135000D02*
X121431000Y-124802000D01*
D12*
X133750000Y-103720000D02*
X115952220Y-103720000D01*
X115952220Y-103720000D02*
X115952220Y-124718180D01*
X115952220Y-124718180D02*
X133079440Y-124718180D01*
X133079440Y-124718180D02*
X133750000Y-124047620D01*
X133750000Y-124047620D02*
X133750000Y-103720000D01*
X129350720Y-126143120D02*
X120356580Y-126143120D01*
X120356580Y-126143120D02*
X120356580Y-118789820D01*
X120356580Y-118789820D02*
X129355800Y-118789820D01*
X129355800Y-118789820D02*
X129355800Y-126143120D01*
D13*
X134893000Y-121881000D02*
G75*
G03*
X134893000Y-121881000I-254000J0D01*
G01*
%TO.C,REF\u002A\u002A*%
D10*
X115736666Y-83022380D02*
X115403333Y-82546190D01*
X115165238Y-83022380D02*
X115165238Y-82022380D01*
X115546190Y-82022380D01*
X115641428Y-82070000D01*
X115689047Y-82117619D01*
X115736666Y-82212857D01*
X115736666Y-82355714D01*
X115689047Y-82450952D01*
X115641428Y-82498571D01*
X115546190Y-82546190D01*
X115165238Y-82546190D01*
X116165238Y-82498571D02*
X116498571Y-82498571D01*
X116641428Y-83022380D02*
X116165238Y-83022380D01*
X116165238Y-82022380D01*
X116641428Y-82022380D01*
X117403333Y-82498571D02*
X117070000Y-82498571D01*
X117070000Y-83022380D02*
X117070000Y-82022380D01*
X117546190Y-82022380D01*
X118070000Y-82022380D02*
X118070000Y-82260476D01*
X117831904Y-82165238D02*
X118070000Y-82260476D01*
X118308095Y-82165238D01*
X117927142Y-82450952D02*
X118070000Y-82260476D01*
X118212857Y-82450952D01*
X118831904Y-82022380D02*
X118831904Y-82260476D01*
X118593809Y-82165238D02*
X118831904Y-82260476D01*
X119070000Y-82165238D01*
X118689047Y-82450952D02*
X118831904Y-82260476D01*
X118974761Y-82450952D01*
%TO.C,U1*%
D14*
X123738166Y-125013666D02*
X123738166Y-125733333D01*
X123780500Y-125818000D01*
X123822833Y-125860333D01*
X123907500Y-125902666D01*
X124076833Y-125902666D01*
X124161500Y-125860333D01*
X124203833Y-125818000D01*
X124246166Y-125733333D01*
X124246166Y-125013666D01*
X125135166Y-125902666D02*
X124627166Y-125902666D01*
X124881166Y-125902666D02*
X124881166Y-125013666D01*
X124796500Y-125140666D01*
X124711833Y-125225333D01*
X124627166Y-125267666D01*
%TD*%
M02*
